<svg width="28" height="28" viewBox="0 0 28 28" fill="none" xmlns="http://www.w3.org/2000/svg">
<path d="M18.4102 2.33398H9.59016C5.18016 2.33398 4.0835 3.51232 4.0835 8.21398V21.3506C4.0835 24.454 5.78683 25.189 7.85183 22.9723L7.8635 22.9607C8.82016 21.9457 10.2785 22.0273 11.1068 23.1357L12.2852 24.7107C13.2302 25.959 14.7585 25.959 15.7035 24.7107L16.8818 23.1357C17.7218 22.0156 19.1802 21.934 20.1368 22.9607C22.2135 25.1773 23.9052 24.4423 23.9052 21.339V8.21398C23.9168 3.51232 22.8202 2.33398 18.4102 2.33398ZM17.5002 13.709H10.5002C10.0218 13.709 9.62516 13.3123 9.62516 12.834C9.62516 12.3557 10.0218 11.959 10.5002 11.959H17.5002C17.9785 11.959 18.3752 12.3557 18.3752 12.834C18.3752 13.3123 17.9785 13.709 17.5002 13.709ZM18.6668 9.04232H9.3335C8.85516 9.04232 8.4585 8.64565 8.4585 8.16732C8.4585 7.68898 8.85516 7.29232 9.3335 7.29232H18.6668C19.1452 7.29232 19.5418 7.68898 19.5418 8.16732C19.5418 8.64565 19.1452 9.04232 18.6668 9.04232Z" fill="#788C6D"/>
</svg>
