<svg width="28" height="28" viewBox="0 0 28 28" fill="none" xmlns="http://www.w3.org/2000/svg">
<path d="M18.8885 25.666H9.11183C4.86516 25.666 2.3335 23.1343 2.3335 18.8877V9.12268C2.3335 4.86435 4.86516 2.33268 9.11183 2.33268H18.8768C23.1235 2.33268 25.6552 4.86435 25.6552 9.11101V18.8877C25.6668 23.1343 23.1352 25.666 18.8885 25.666ZM8.9485 21.5827C8.9485 22.061 9.34516 22.4577 9.8235 22.4577C10.3018 22.4577 10.6985 22.061 10.6985 21.5827V17.0327C10.6985 16.5543 10.3018 16.1577 9.8235 16.1577C9.34516 16.1577 8.9485 16.5543 8.9485 17.0327V21.5827ZM11.0526 8.80466C10.8474 8.71829 10.6985 8.52616 10.6985 8.30356V6.41601C10.6985 5.93768 10.3018 5.54101 9.8235 5.54101C9.34516 5.54101 8.9485 5.93768 8.9485 6.41601V8.30356C8.9485 8.52616 8.79953 8.71826 8.59443 8.80476C7.45008 9.28738 6.65016 10.4095 6.65016 11.7243C6.65016 13.4743 8.0735 14.9093 9.8235 14.9093C11.5735 14.9093 13.0085 13.486 13.0085 11.7243C13.0085 10.4094 12.1988 9.28723 11.0526 8.80466ZM19.0518 6.41601C19.0518 5.93768 18.6552 5.54101 18.1768 5.54101C17.6985 5.54101 17.3018 5.93768 17.3018 6.41601V10.966C17.3018 11.4443 17.6985 11.841 18.1768 11.841C18.6552 11.841 19.0518 11.4443 19.0518 10.966V6.41601ZM18.1768 13.101C16.4268 13.101 14.9918 14.5243 14.9918 16.286C14.9918 17.601 15.8015 18.7231 16.9477 19.2057C17.1529 19.2921 17.3018 19.4842 17.3018 19.7068V21.5827C17.3018 22.061 17.6985 22.4577 18.1768 22.4577C18.6552 22.4577 19.0518 22.061 19.0518 21.5827V19.6951C19.0518 19.4725 19.2008 19.2804 19.4059 19.1939C20.5502 18.7113 21.3502 17.5892 21.3502 16.2743C21.3502 14.5243 19.9268 13.101 18.1768 13.101Z" fill="#788C6D"/>
</svg>
