<svg width="28" height="28" viewBox="0 0 28 28" fill="none" xmlns="http://www.w3.org/2000/svg">
<path d="M18.8885 25.668H9.11183C4.86516 25.668 2.3335 23.1363 2.3335 18.8896V9.12463C2.3335 4.8663 4.86516 2.33463 9.11183 2.33463H18.8768C23.1235 2.33463 25.6552 4.8663 25.6552 9.11297V18.8896C25.6668 23.1363 23.1352 25.668 18.8885 25.668ZM8.9485 21.5846C8.9485 22.063 9.34516 22.4596 9.8235 22.4596C10.3018 22.4596 10.6985 22.063 10.6985 21.5846V17.0346C10.6985 16.5563 10.3018 16.1596 9.8235 16.1596C9.34516 16.1596 8.9485 16.5563 8.9485 17.0346V21.5846ZM11.0526 8.80661C10.8474 8.72024 10.6985 8.52811 10.6985 8.30551V6.41797C10.6985 5.93963 10.3018 5.54297 9.8235 5.54297C9.34516 5.54297 8.9485 5.93963 8.9485 6.41797V8.30551C8.9485 8.52811 8.79953 8.72021 8.59443 8.80671C7.45008 9.28933 6.65016 10.4114 6.65016 11.7263C6.65016 13.4763 8.0735 14.9113 9.8235 14.9113C11.5735 14.9113 13.0085 13.488 13.0085 11.7263C13.0085 10.4114 12.1988 9.28918 11.0526 8.80661ZM19.0518 6.41797C19.0518 5.93963 18.6552 5.54297 18.1768 5.54297C17.6985 5.54297 17.3018 5.93963 17.3018 6.41797V10.968C17.3018 11.4463 17.6985 11.843 18.1768 11.843C18.6552 11.843 19.0518 11.4463 19.0518 10.968V6.41797ZM18.1768 13.103C16.4268 13.103 14.9918 14.5263 14.9918 16.288C14.9918 17.6029 15.8015 18.7251 16.9477 19.2077C17.1529 19.294 17.3018 19.4862 17.3018 19.7088V21.5846C17.3018 22.063 17.6985 22.4596 18.1768 22.4596C18.6552 22.4596 19.0518 22.063 19.0518 21.5846V19.6971C19.0518 19.4745 19.2008 19.2824 19.4059 19.1959C20.5502 18.7133 21.3502 17.5912 21.3502 16.2763C21.3502 14.5263 19.9268 13.103 18.1768 13.103Z" fill="#01ED19"/>
</svg>
