<svg width="28" height="28" viewBox="0 0 28 28" fill="none" xmlns="http://www.w3.org/2000/svg">
<path d="M18.4102 2.33203H9.59016C5.18016 2.33203 4.0835 3.51036 4.0835 8.21203V21.3487C4.0835 24.452 5.78683 25.187 7.85183 22.9704L7.8635 22.9587C8.82016 21.9437 10.2785 22.0254 11.1068 23.1337L12.2852 24.7087C13.2302 25.957 14.7585 25.957 15.7035 24.7087L16.8818 23.1337C17.7218 22.0137 19.1802 21.932 20.1368 22.9587C22.2135 25.1754 23.9052 24.4404 23.9052 21.337V8.21203C23.9168 3.51036 22.8202 2.33203 18.4102 2.33203ZM17.5002 13.707H10.5002C10.0218 13.707 9.62516 13.3104 9.62516 12.832C9.62516 12.3537 10.0218 11.957 10.5002 11.957H17.5002C17.9785 11.957 18.3752 12.3537 18.3752 12.832C18.3752 13.3104 17.9785 13.707 17.5002 13.707ZM18.6668 9.04036H9.3335C8.85516 9.04036 8.4585 8.6437 8.4585 8.16536C8.4585 7.68703 8.85516 7.29036 9.3335 7.29036H18.6668C19.1452 7.29036 19.5418 7.68703 19.5418 8.16536C19.5418 8.6437 19.1452 9.04036 18.6668 9.04036Z" fill="#01ED19"/>
</svg>
