<svg width="24" height="24" viewBox="0 0 24 24" fill="none" xmlns="http://www.w3.org/2000/svg">
<rect width="23.7" height="23.7" rx="4" fill="#788C6D"/>
<path d="M7.64103 12.3871V11.0542H6V10.0148H7.64103V6H9.82564C9.88718 6.07934 10.0068 6.29622 10.1846 6.65062C10.3624 7.00502 10.9094 8.1264 11.8256 10.0148H14.2974V6H15.959V10.0148H17.6V11.0542H15.959V12.3871H17.6V13.4265H15.959V17.6H13.7538L11.7641 13.4265H9.28205V17.6H7.64103V13.4265H6V12.3871H7.64103ZM14.2974 11.0542H12.3077L12.9333 12.3871H14.2974V11.0542ZM9.28205 12.3871H11.2513L10.6256 11.0542H9.28205V12.3871ZM9.11795 8.04706C9.17949 8.82462 9.22051 9.48053 9.24103 10.0148H10.1231L9.2 8.04706H9.11795ZM14.4513 15.1959L14.3179 13.4265H13.4359C13.9214 14.4368 14.2325 15.0266 14.3692 15.1959H14.4513Z" fill="#1D432E"/>
</svg>
