<svg width="26" height="26" viewBox="0 0 26 26" fill="none" xmlns="http://www.w3.org/2000/svg">
<path d="M21.2881 20.093L21.4442 20.2491L21.5842 20.0783C23.2282 18.0721 24.12 15.5642 24.12 13C24.12 6.86849 19.1315 1.88 13 1.88C10.4357 1.88 7.92716 2.77194 5.92038 4.44425L5.75214 4.58445L5.907 4.73932L10.8003 9.63265L9.875 11.0427L4.73932 5.907L4.58317 5.75085L4.4432 5.92166C2.80012 7.92676 1.88 10.4344 1.88 13C1.88 19.132 6.86879 24.1195 13.0265 24.1474H13.0274C15.593 24.1474 18.1006 23.2272 20.1057 21.5842L20.2765 21.4442L20.1204 21.2881L14.8704 16.0381L15.7978 14.6028L21.2881 20.093ZM0.2 13C0.2 5.93993 5.93993 0.2 13 0.2C20.0601 0.2 25.8 5.93993 25.8 13C25.8 20.0601 20.0601 25.8 13 25.8C5.93993 25.8 0.2 20.0601 0.2 13Z" fill="#D7D7D7" stroke="white" stroke-width="0.4"/>
<path d="M8.18305 17.1048L7.93674 19.1574C7.882 19.7048 8.45674 20.088 8.922 19.8143L10.7009 18.7743C11.1388 18.528 11.4946 18.1722 11.7957 17.7616L8.64832 15.6816C8.42937 16.1195 8.26516 16.6122 8.18305 17.1048Z" fill="#D7D7D7"/>
<path d="M17.6798 7.39037L15.9282 6.2409C15.5451 5.99458 14.9977 6.10406 14.7514 6.48721L9.41455 14.5609L12.5893 16.6409L17.9261 8.56721C18.1724 8.18405 18.063 7.63669 17.6798 7.39037Z" fill="#D7D7D7"/>
</svg>
