<svg width="22" height="22" viewBox="0 0 22 22" fill="none" xmlns="http://www.w3.org/2000/svg">
<path d="M15.2261 18.334C16.4544 18.3432 17.6369 17.8849 18.5444 17.0599C21.5419 14.4382 19.9377 9.17652 15.9869 8.68152C14.5752 0.119852 2.22774 3.36485 5.15191 11.514" stroke="#040405" stroke-width="1.5" stroke-miterlimit="10" stroke-linecap="round" stroke-linejoin="round"/>
<path d="M6.67358 11.8906C6.18774 11.6431 5.64691 11.5147 5.10608 11.5239C0.834409 11.8264 0.843575 18.0414 5.10608 18.3439" stroke="#040405" stroke-width="1.5" stroke-miterlimit="10" stroke-linecap="round" stroke-linejoin="round"/>
<path d="M14.5015 9.06724C14.9781 8.82891 15.4915 8.70057 16.0231 8.69141" stroke="#040405" stroke-width="1.5" stroke-miterlimit="10" stroke-linecap="round" stroke-linejoin="round"/>
<path d="M8.46082 17.5619H9.37749V19.6978C9.37749 20.0094 9.77165 20.1653 9.97332 19.9269L12.2192 17.3694C12.4942 17.0578 12.375 16.8011 11.9625 16.8011H11.0458V14.6653C11.0458 14.3536 10.6517 14.1978 10.45 14.4361L8.20415 16.9936C7.92915 17.3053 8.04832 17.5619 8.46082 17.5619Z" stroke="#040405" stroke-width="1.5" stroke-miterlimit="10" stroke-linecap="round" stroke-linejoin="round"/>
</svg>
