<svg width="20" height="21" viewBox="0 0 20 21" fill="none" xmlns="http://www.w3.org/2000/svg">
<path d="M7.5 13C7.5 10.643 7.5 9.46447 8.23223 8.73223C8.96447 8 10.143 8 12.5 8L13.3333 8C15.6904 8 16.8689 8 17.6011 8.73223C18.3333 9.46447 18.3333 10.643 18.3333 13V13.8333C18.3333 16.1904 18.3333 17.3689 17.6011 18.1011C16.8689 18.8333 15.6904 18.8333 13.3333 18.8333H12.5C10.143 18.8333 8.96447 18.8333 8.23223 18.1011C7.5 17.3689 7.5 16.1904 7.5 13.8333L7.5 13Z" stroke="#01ED19" stroke-width="1.5" stroke-linecap="round" stroke-linejoin="round"/>
<path d="M14.1664 7.99935C14.1645 5.53511 14.1271 4.25869 13.4099 3.38471C13.2714 3.21592 13.1166 3.06116 12.9478 2.92265C12.0259 2.16602 10.6561 2.16602 7.9165 2.16602C5.17694 2.16602 3.80715 2.16602 2.88519 2.92265C2.71641 3.06116 2.56165 3.21592 2.42314 3.3847C1.6665 4.30666 1.6665 5.67645 1.6665 8.41601C1.6665 11.1556 1.6665 12.5254 2.42314 13.4473C2.56165 13.6161 2.71641 13.7709 2.88519 13.9094C3.75918 14.6266 5.03559 14.664 7.49984 14.6659" stroke="#01ED19" stroke-width="1.5" stroke-linecap="round" stroke-linejoin="round"/>
</svg>
