<svg width="114" height="351" viewBox="0 0 114 351" fill="none" xmlns="http://www.w3.org/2000/svg">
<path d="M-84.4108 315.809L-266.605 118.84L-266.569 118.85L-267.743 117.604C-267.971 117.362 -268.075 117.113 -268.075 116.895L-268.075 116.895L-268.076 116.886C-268.083 116.485 -267.753 116.051 -267.049 115.949L-267.047 115.949L35.4559 70.5886C35.456 70.5886 35.4561 70.5886 35.4562 70.5886C36.1366 70.488 36.8735 70.7495 37.2896 71.218L99.3687 141.162C99.7878 141.636 99.7452 142.136 99.4226 142.452C99.4222 142.452 99.4218 142.453 99.4214 142.453L-81.544 316.331L-81.5532 316.339L-81.5619 316.349L-81.5654 316.353C-81.5664 316.354 -81.5674 316.355 -81.5684 316.356C-81.8686 316.64 -82.4177 316.8 -83.0346 316.686C-83.0608 316.68 -83.0846 316.674 -83.1034 316.67L-83.1072 316.669C-83.1317 316.664 -83.1479 316.661 -83.1645 316.656C-83.5296 316.565 -83.8338 316.349 -84.1012 316.065L-84.3658 315.785L-84.4108 315.809ZM-36.7581 216.153L-36.3023 216.392L-36.0769 215.93L-2.28142 146.617L-1.91862 145.873L-2.74602 145.898L-159.903 150.679L-161.81 150.737L-160.119 151.622L-36.7581 216.153ZM1.97045 145.756L1.66857 145.765L1.53621 146.037L-33.2786 217.429L-33.4916 217.866L-33.0609 218.091L-2.7325 233.956L-2.1556 234.258L-2.01289 233.622L17.6945 145.904L17.8358 145.275L17.1915 145.294L1.97045 145.756ZM21.5355 145.158L21.1478 145.17L21.0628 145.548L2.10476 229.973L1.74285 231.585L2.93785 230.444L93.6749 143.841L94.619 142.94L93.3145 142.979L21.5355 145.158ZM21.822 142.198L21.6799 142.828L22.325 142.808L64.3066 141.527L64.3249 140.528L23.2575 137.762L22.8304 137.733L22.7362 138.15L21.822 142.198ZM17.9778 142.941L18.3655 142.929L18.4505 142.55L19.4522 138.088L19.5799 137.519L18.9981 137.48L6.46571 136.631L6.12968 136.608L5.98234 136.911L3.18614 142.659L2.82431 143.402L3.65097 143.377L17.9778 142.941ZM7.54503 133.732L7.21924 134.4L7.96086 134.45L19.6664 135.238L20.0939 135.267L20.1878 134.849L30.5147 88.8762L29.5775 88.5475L7.54503 133.732ZM3.45762 134.142L3.79323 134.165L3.94066 133.862L32.4394 75.4162L32.9968 74.273L31.8101 74.7305L-101.454 126.113L-101.308 127.079L3.45762 134.142ZM2.38907 137.048L2.71557 136.379L1.97346 136.329L-108.509 128.877L-108.619 128.87L-108.722 128.91L-156.337 147.266L-156.142 148.233L-1.06942 143.518L-0.767814 143.509L-0.635353 143.238L2.38907 137.048ZM-166.728 148.374L-166.559 148.429L-166.393 148.365L-116.862 129.267L-117.008 128.302L-253.467 119.101L-253.655 120.075L-166.728 148.374ZM-167.352 150.69L-167.446 150.504L-167.644 150.44L-237.848 127.586L-238.208 128.518L-162.394 162.526L-161.111 163.102L-161.743 161.845L-167.352 150.69ZM-161.852 153.319L-163.229 152.598L-162.53 153.986L-157.103 164.771L-157.023 164.93L-156.861 165.003L-50.2244 212.843L-49.788 211.944L-161.852 153.319ZM-38.6067 221.115L-38.3804 220.651L-38.8515 220.44L-154.123 168.736L-155.406 168.16L-154.775 169.416L-83.4654 311.281L-83.0118 312.183L-82.5692 311.275L-38.6067 221.115ZM-35.034 222.148L-35.4758 221.949L-35.6881 222.385L-76.3913 305.852L-75.5941 306.43L-3.80878 236.909L-3.27875 236.395L-3.95196 236.093L-35.034 222.148ZM23.4616 134.919L23.3338 135.488L23.9158 135.527L93.9669 140.251L95.1849 140.333L94.3745 139.42L37.619 75.4811L36.971 74.7511L36.7572 75.7034L23.4616 134.919ZM-109.824 126.503L-109.714 126.51L-109.61 126.47L20.7023 76.2321L20.4483 75.2711L-251.085 115.986L-251.045 116.979L-109.824 126.503ZM-159.417 166.484L-159.497 166.325L-159.659 166.252L-259.308 121.553L-259.88 122.349L-90.8441 305.091L-90.0303 304.527L-159.417 166.484Z" fill="#BAE5A4" fill-opacity="0.4" stroke="white"/>
</svg>
