<svg width="24" height="24" viewBox="0 0 24 24" fill="none" xmlns="http://www.w3.org/2000/svg">
<path d="M21.6698 14.3L21.2698 19.3C21.1198 20.83 20.9998 22 18.2898 22H5.70977C2.99977 22 2.87977 20.83 2.72977 19.3L2.32977 14.3C2.24977 13.47 2.50977 12.7 2.97977 12.11C2.98977 12.1 2.98977 12.1 2.99977 12.09C3.54977 11.42 4.37977 11 5.30977 11H18.6898C19.6198 11 20.4398 11.42 20.9798 12.07C20.9898 12.08 20.9998 12.09 20.9998 12.1C21.4898 12.69 21.7598 13.46 21.6698 14.3Z" stroke="#151B33" stroke-width="1.5" stroke-miterlimit="10"/>
<path d="M3.5 11.4313V6.28125C3.5 2.88125 4.35 2.03125 7.75 2.03125H9.02C10.29 2.03125 10.58 2.41125 11.06 3.05125L12.33 4.75125C12.65 5.17125 12.84 5.43125 13.69 5.43125H16.24C19.64 5.43125 20.49 6.28125 20.49 9.68125V11.4713" stroke="#151B33" stroke-width="1.5" stroke-miterlimit="10" stroke-linecap="round" stroke-linejoin="round"/>
<path d="M9.43018 17H14.5702" stroke="#151B33" stroke-width="1.5" stroke-miterlimit="10" stroke-linecap="round" stroke-linejoin="round"/>
</svg>
