<svg width="22" height="22" viewBox="0 0 22 22" fill="none" xmlns="http://www.w3.org/2000/svg">
<path d="M2.77639 7.33398L7.7766 10.6752C8.95053 11.4556 9.5375 11.8457 10.1717 11.9973C10.7322 12.1313 11.3163 12.1313 11.8768 11.9973C12.511 11.8457 13.0979 11.4556 14.2719 10.6752L19.2258 7.3707M7.15 17.4173H14.85C16.3901 17.4173 17.1602 17.4173 17.7485 17.1176C18.2659 16.8539 18.6866 16.4332 18.9503 15.9158C19.25 15.3275 19.25 14.5575 19.25 13.0173V8.98398C19.25 7.44384 19.25 6.67377 18.9503 6.08551C18.6866 5.56806 18.2659 5.14737 17.7485 4.88372C17.1602 4.58398 16.3901 4.58398 14.85 4.58398H7.15C5.60986 4.58398 4.83978 4.58398 4.25153 4.88372C3.73408 5.14737 3.31338 5.56806 3.04973 6.08551C2.75 6.67377 2.75 7.44384 2.75 8.98398V13.0173C2.75 14.5575 2.75 15.3275 3.04973 15.9158C3.31338 16.4332 3.73408 16.8539 4.25153 17.1176C4.83978 17.4173 5.60986 17.4173 7.15 17.4173Z" stroke="#040405" stroke-width="1.5" stroke-miterlimit="10" stroke-linecap="round"/>
</svg>
