<svg width="28" height="28" viewBox="0 0 28 28" fill="none" xmlns="http://www.w3.org/2000/svg">
<path d="M25.6668 14.0007C25.6668 20.4407 20.4402 25.6673 14.0002 25.6673C7.56016 25.6673 2.3335 20.4407 2.3335 14.0007C2.3335 7.56065 7.56016 2.33398 14.0002 2.33398" stroke="#0D0E0D" stroke-width="2" stroke-linecap="round"/>
<path d="M19.8335 3.5V8.16667H24.5002" stroke="#0D0E0D" stroke-width="2" stroke-linecap="round"/>
<path d="M25.6668 2.33398L19.8335 8.16732" stroke="#0D0E0D" stroke-width="2" stroke-linecap="round"/>
<path d="M10.292 12.498H11.1636V8.79199H13.522L14.7231 12.498H16.0562V8.79199H17.7188V12.498H18.5757V13.604H17.7188V14.688H18.5757V15.7939H17.7188V19.5H15.353L14.1519 15.7939H12.8335V19.5H11.1636V15.7939H10.292V14.688H11.1636V13.604H10.292V12.498ZM12.8335 14.688H13.793L13.4487 13.604H12.8335V14.688ZM15.4409 14.688H16.0562V13.604H15.082L15.4409 14.688ZM12.6943 11.2529L12.7822 12.498H13.0825L12.6943 11.2529ZM16.188 16.9805C16.1733 16.8535 16.144 16.458 16.1001 15.7939H15.7998L16.188 16.9805Z" fill="#0D0E0D"/>
</svg>
