<svg width="28" height="28" viewBox="0 0 28 28" fill="none" xmlns="http://www.w3.org/2000/svg">
<path d="M25.6668 14.0007C25.6668 20.4407 20.4402 25.6673 14.0002 25.6673C7.56016 25.6673 2.3335 20.4407 2.3335 14.0007C2.3335 7.56065 7.56016 2.33398 14.0002 2.33398" stroke="#0D0E0D" stroke-width="2" stroke-linecap="round" stroke-linejoin="round"/>
<path d="M25.6667 7.00065V2.33398H21" stroke="#0D0E0D" stroke-width="2" stroke-linecap="round" stroke-linejoin="round"/>
<path d="M19.8335 8.16732L25.6668 2.33398" stroke="#0D0E0D" stroke-width="2" stroke-linecap="round" stroke-linejoin="round"/>
<path d="M10.6309 12.4648H11.4443V9.00586H13.6455L14.7666 12.4648H16.0107V9.00586H17.5625V12.4648H18.3623V13.4971H17.5625V14.5088H18.3623V15.541H17.5625V19H15.3545L14.2334 15.541H13.0029V19H11.4443V15.541H10.6309V14.5088H11.4443V13.4971H10.6309V12.4648ZM13.0029 14.5088H13.8984L13.5771 13.4971H13.0029V14.5088ZM15.4365 14.5088H16.0107V13.4971H15.1016L15.4365 14.5088ZM12.873 11.3027L12.9551 12.4648H13.2354L12.873 11.3027ZM16.1338 16.6484C16.1201 16.5299 16.0928 16.1608 16.0518 15.541H15.7715L16.1338 16.6484Z" fill="#0D0E0D"/>
</svg>
