<svg width="30" height="30" viewBox="0 0 30 30" fill="none" xmlns="http://www.w3.org/2000/svg">
<path d="M22.5 7.5C24.1251 7.66087 25.2191 8.02445 26.0355 8.84614C27.5 10.32 27.5 12.692 27.5 17.4362C27.5 22.1803 27.5 24.5524 26.0355 26.0262C24.5711 27.5 22.214 27.5 17.5 27.5H12.5C7.78595 27.5 5.42893 27.5 3.96447 26.0262C2.5 24.5524 2.5 22.1803 2.5 17.4362C2.5 12.692 2.5 10.32 3.96447 8.84614C4.78094 8.02445 5.87486 7.66087 7.5 7.5" stroke="#0D0E0D" stroke-width="2" stroke-linecap="round"/>
<path d="M11.875 6.875C12.4894 7.50712 14.1247 10 15 10M18.125 6.875C17.5106 7.50712 15.8753 10 15 10M15 10V2.5" stroke="#0D0E0D" stroke-width="2" stroke-linecap="round" stroke-linejoin="round"/>
<path d="M23.1348 17.5H23.1235" stroke="#0D0E0D" stroke-width="2" stroke-linecap="round" stroke-linejoin="round"/>
<path d="M6.88477 17.5H6.87354" stroke="#0D0E0D" stroke-width="2" stroke-linecap="round" stroke-linejoin="round"/>
<path d="M18.125 17.5C18.125 19.2259 16.7259 20.625 15 20.625C13.2741 20.625 11.875 19.2259 11.875 17.5C11.875 15.7741 13.2741 14.375 15 14.375C16.7259 14.375 18.125 15.7741 18.125 17.5Z" stroke="#0D0E0D" stroke-width="2"/>
</svg>
