<svg width="10" height="12" viewBox="0 0 10 12" fill="none" xmlns="http://www.w3.org/2000/svg">
<path d="M1.82812 6.86719V5.55469H0.578125V4.53125H1.82812V0.578125H3.49219C3.53906 0.65625 3.63021 0.869792 3.76562 1.21875C3.90104 1.56771 4.31771 2.67188 5.01562 4.53125H6.89844V0.578125H8.16406V4.53125H9.41406V5.55469H8.16406V6.86719H9.41406V7.89062H8.16406V12H6.48438L4.96875 7.89062H3.07812V12H1.82812V7.89062H0.578125V6.86719H1.82812ZM6.89844 5.55469H5.38281L5.85938 6.86719H6.89844V5.55469ZM3.07812 6.86719H4.57812L4.10156 5.55469H3.07812V6.86719ZM2.95312 2.59375C3 3.35938 3.03125 4.00521 3.04688 4.53125H3.71875L3.01562 2.59375H2.95312ZM7.01562 9.63281L6.91406 7.89062H6.24219C6.61198 8.88542 6.84896 9.46615 6.95312 9.63281H7.01562Z" fill="#696969"/>
</svg>
