<svg width="40" height="40" viewBox="0 0 40 40" fill="none" xmlns="http://www.w3.org/2000/svg">
<path d="M18.3665 32.5H12.4998C11.4665 32.5 10.5498 32.4667 9.73317 32.35C5.34984 31.8667 4.1665 29.8 4.1665 24.1667V15.8333C4.1665 10.2 5.34984 8.13333 9.73317 7.65C10.5498 7.53333 11.4665 7.5 12.4998 7.5H18.2665" stroke="#040405" stroke-width="2" stroke-linecap="round" stroke-linejoin="round"/>
<path d="M25.0332 7.5H27.4999C28.5332 7.5 29.4499 7.53333 30.2665 7.65C34.6499 8.13333 35.8332 10.2 35.8332 15.8333V24.1667C35.8332 29.8 34.6499 31.8667 30.2665 32.35C29.4499 32.4667 28.5332 32.5 27.4999 32.5H25.0332" stroke="#040405" stroke-width="2" stroke-linecap="round" stroke-linejoin="round"/>
<path d="M25 3.33398V36.6673" stroke="#040405" stroke-width="2" stroke-linecap="round" stroke-linejoin="round"/>
<path d="M18.4907 19.9993H18.5057" stroke="#040405" stroke-width="3" stroke-linecap="round" stroke-linejoin="round"/>
<path d="M11.8242 19.9993H11.8391" stroke="#040405" stroke-width="3" stroke-linecap="round" stroke-linejoin="round"/>
</svg>
