<svg width="22" height="22" viewBox="0 0 22 22" fill="none" xmlns="http://www.w3.org/2000/svg">
<g clip-path="url(#clip0_2112_6939)">
<path d="M11.1464 9.96482C11.0547 9.95565 10.9447 9.95565 10.8439 9.96482C8.66219 9.89148 6.92969 8.10398 6.92969 5.90398C6.92969 3.65815 8.74469 1.83398 10.9997 1.83398C13.2455 1.83398 15.0697 3.65815 15.0697 5.90398C15.0605 8.10398 13.328 9.89148 11.1464 9.96482Z" stroke="#040405" stroke-width="1.5" stroke-linecap="round" stroke-linejoin="round"/>
<path d="M6.56316 13.346C4.34483 14.831 4.34483 17.251 6.56316 18.7268C9.084 20.4135 13.2182 20.4135 15.739 18.7268C17.9573 17.2418 17.9573 14.8218 15.739 13.346C13.2273 11.6685 9.09316 11.6685 6.56316 13.346Z" stroke="#040405" stroke-width="1.5" stroke-linecap="round" stroke-linejoin="round"/>
</g>
<defs>
<clipPath id="clip0_2112_6939">
<rect width="22" height="22" fill="white"/>
</clipPath>
</defs>
</svg>
