<svg width="30" height="30" viewBox="0 0 30 30" fill="none" xmlns="http://www.w3.org/2000/svg">
<path d="M3.75 7.5C3.75 5.73223 3.75 4.84835 4.29917 4.29917C4.84835 3.75 5.73223 3.75 7.5 3.75C9.26777 3.75 10.1517 3.75 10.7008 4.29917C11.25 4.84835 11.25 5.73223 11.25 7.5C11.25 9.26777 11.25 10.1517 10.7008 10.7008C10.1517 11.25 9.26777 11.25 7.5 11.25C5.73223 11.25 4.84835 11.25 4.29917 10.7008C3.75 10.1517 3.75 9.26777 3.75 7.5Z" stroke="#0D0E0D" stroke-width="2"/>
<path d="M3.75 22.5C3.75 20.7322 3.75 19.8483 4.29917 19.2992C4.84835 18.75 5.73223 18.75 7.5 18.75C9.26777 18.75 10.1517 18.75 10.7008 19.2992C11.25 19.8483 11.25 20.7322 11.25 22.5C11.25 24.2678 11.25 25.1517 10.7008 25.7008C10.1517 26.25 9.26777 26.25 7.5 26.25C5.73223 26.25 4.84835 26.25 4.29917 25.7008C3.75 25.1517 3.75 24.2678 3.75 22.5Z" stroke="#0D0E0D" stroke-width="2"/>
<path d="M3.75 15L11.25 15" stroke="#0D0E0D" stroke-width="2" stroke-linecap="round" stroke-linejoin="round"/>
<path d="M15 3.75V10" stroke="#0D0E0D" stroke-width="2" stroke-linecap="round" stroke-linejoin="round"/>
<path d="M18.75 7.5C18.75 5.73223 18.75 4.84835 19.2992 4.29917C19.8483 3.75 20.7322 3.75 22.5 3.75C24.2678 3.75 25.1517 3.75 25.7008 4.29917C26.25 4.84835 26.25 5.73223 26.25 7.5C26.25 9.26777 26.25 10.1517 25.7008 10.7008C25.1517 11.25 24.2678 11.25 22.5 11.25C20.7322 11.25 19.8483 11.25 19.2992 10.7008C18.75 10.1517 18.75 9.26777 18.75 7.5Z" stroke="#0D0E0D" stroke-width="2"/>
<path d="M26.25 15H18.75C16.9822 15 16.0983 15 15.5492 15.5492C15 16.0983 15 16.9822 15 18.75M15 22.2115V25.6731M18.75 18.75V20.625C18.75 22.4329 19.7296 22.5 21.25 22.5C21.9404 22.5 22.5 23.0596 22.5 23.75M20 26.25H18.75M22.5 18.75C24.2678 18.75 25.1517 18.75 25.7008 19.3C26.25 19.8499 26.25 20.7351 26.25 22.5054C26.25 24.2757 26.25 25.1609 25.7008 25.7109C25.3 26.1123 24.7209 26.2207 23.75 26.25" stroke="#0D0E0D" stroke-width="2" stroke-linecap="round"/>
</svg>
