<svg width="30" height="30" viewBox="0 0 30 30" fill="none" xmlns="http://www.w3.org/2000/svg">
<path d="M6.25 6.15C5.50442 6.15 4.9 6.75442 4.9 7.5V10C4.9 10.6351 4.38512 11.15 3.75 11.15C3.11488 11.15 2.6 10.6351 2.6 10V7.5C2.6 5.48417 4.23417 3.85 6.25 3.85H9.375C10.0101 3.85 10.525 4.36488 10.525 5C10.525 5.63512 10.0101 6.15 9.375 6.15H6.25Z" fill="#0D0E0D" stroke="#C9ECFC" stroke-width="0.2"/>
<path d="M19.475 5C19.475 4.36488 19.9899 3.85 20.625 3.85H23.75C25.7659 3.85 27.4 5.48416 27.4 7.5V10C27.4 10.6351 26.8851 11.15 26.25 11.15C25.6149 11.15 25.1 10.6351 25.1 10V7.5C25.1 6.75442 24.4956 6.15 23.75 6.15H20.625C19.9899 6.15 19.475 5.63512 19.475 5Z" fill="#0D0E0D" stroke="#C9ECFC" stroke-width="0.2"/>
<path d="M3.75 18.85C4.38512 18.85 4.9 19.3649 4.9 20V22.5C4.9 23.2456 5.50442 23.85 6.25 23.85H9.375C10.0101 23.85 10.525 24.3649 10.525 25C10.525 25.6351 10.0101 26.15 9.375 26.15H6.25C4.23416 26.15 2.6 24.5159 2.6 22.5V20C2.6 19.3649 3.11488 18.85 3.75 18.85Z" fill="#0D0E0D" stroke="#C9ECFC" stroke-width="0.2"/>
<path d="M26.25 18.85C26.8851 18.85 27.4 19.3649 27.4 20V22.5C27.4 24.5159 25.7659 26.15 23.75 26.15H20.625C19.9899 26.15 19.475 25.6351 19.475 25C19.475 24.3649 19.9899 23.85 20.625 23.85H23.75C24.4956 23.85 25.1 23.2456 25.1 22.5V20C25.1 19.3649 25.6149 18.85 26.25 18.85Z" fill="#0D0E0D" stroke="#C9ECFC" stroke-width="0.2"/>
<path d="M2.6 15C2.6 14.3649 3.11488 13.85 3.75 13.85H26.25C26.8851 13.85 27.4 14.3649 27.4 15C27.4 15.6351 26.8851 16.15 26.25 16.15H3.75C3.11488 16.15 2.6 15.6351 2.6 15Z" fill="#0D0E0D" stroke="#C9ECFC" stroke-width="0.2"/>
</svg>
