<svg width="247" height="392" viewBox="0 0 247 392" fill="none" xmlns="http://www.w3.org/2000/svg">
<path d="M353.564 293.868L353.579 293.812L354.062 293.937C354.482 294.046 354.848 294.048 355.154 293.904C355.161 293.9 355.168 293.897 355.176 293.893L355.202 293.879C355.211 293.875 355.221 293.87 355.232 293.864C355.243 293.858 355.255 293.852 355.268 293.846C355.764 293.559 356.072 293.03 356.079 292.463C356.079 292.463 356.079 292.463 356.079 292.463L356.079 292.457L356.078 292.446L356.078 292.435L356.078 292.424L358.923 -14.2671C358.925 -14.9784 358.454 -15.6134 357.764 -15.8187L353.564 293.868ZM353.564 293.868L68.7943 217.139L68.8214 217.126L67.4796 216.779C67.132 216.689 66.8256 216.495 66.6137 216.206L66.6096 216.201C66.1835 215.635 66.1814 214.854 66.6012 214.29L66.6028 214.288L256.973 -44.2672L353.564 293.868ZM258.724 -44.8594L357.762 -15.8191L256.974 -44.2681C257.378 -44.8129 258.073 -45.05 258.724 -44.8594C258.724 -44.8594 258.724 -44.8594 258.724 -44.8594ZM313.415 157.072L313.986 156.993L313.827 156.439L286.481 60.9999L286.245 60.1765L285.644 60.7868L172.528 175.651L171.497 176.699L172.953 176.498L313.415 157.072ZM289.04 57.3409L288.835 57.5488L288.916 57.8294L317.078 156.136L317.198 156.553L317.628 156.494L352.16 151.717L352.847 151.622L352.54 151.001L300.801 46.3463L300.49 45.7164L299.997 46.217L289.04 57.3409ZM303.12 43.0376L302.87 43.2911L303.028 43.6101L352.831 144.328L353.779 144.113L355.644 -9.06295L355.659 -10.3045L354.788 -9.41989L303.12 43.0376ZM301.057 39.6095L301.369 40.2403L301.862 39.739L332.076 9.0502L331.409 8.30769L298.811 34.1636L298.495 34.4145L298.673 34.7765L301.057 39.6095ZM298.733 42.9166L298.983 42.663L298.825 42.3441L296.193 37.0206L295.918 36.4663L295.434 36.8504L285.483 44.7365L285.22 44.9445L285.313 45.2664L287.585 53.1759L287.821 53.9986L288.422 53.3887L298.733 42.9166ZM284.068 40.8801L284.274 41.5986L284.859 41.1341L294.15 33.7637L294.467 33.5126L294.288 33.1504L267.171 -21.6967L266.242 -21.3374L284.068 40.8801ZM281.281 43.9645L281.543 43.7566L281.451 43.435L258.393 -37.043L257.997 -38.427L257.45 -37.0951L197.345 109.337L196.618 111.108L198.118 109.918L281.281 43.9645ZM282.709 47.8197L282.504 47.1008L281.918 47.5654L194.214 117.115L194.112 117.196L194.062 117.317L172.585 169.634L173.404 170.175L285.023 56.8364L285.227 56.6285L285.147 56.3481L282.709 47.8197ZM165.608 177.75L165.815 177.674L165.899 177.47L188.239 123.045L188.966 121.274L187.465 122.463L79.1431 208.368L79.6257 209.229L165.608 177.75ZM167.068 180.835L166.862 180.71L166.637 180.793L97.1968 206.218L97.4747 207.176L179.522 189.384L180.749 189.117L179.675 188.467L167.068 180.835ZM173.139 179.719L171.743 179.912L172.949 180.642L185.141 188.019L185.311 188.122L185.506 188.079L300.915 163.059L300.74 162.075L173.139 179.719ZM315.872 163.58L315.743 163.13L315.285 163.229L190.539 190.286L189.312 190.552L190.386 191.203L350.702 288.293L351.793 288.954L351.442 287.727L315.872 163.58ZM319.413 162.329L318.892 162.442L319.039 162.955L351.965 277.889L352.945 277.755L353.659 155.529L353.663 154.905L353.053 155.037L319.413 162.329ZM296.767 30.9211L297.041 31.4756L297.525 31.0913L353.133 -13.0078L353.889 -13.6078L352.963 -13.8794L262.423 -40.4223L261.329 -40.7432L261.834 -39.7209L296.767 30.9211ZM191.357 115.278L191.459 115.196L191.508 115.076L250.288 -28.1063L249.423 -28.5926L78.54 203.491L79.2533 204.179L191.357 115.278ZM184.912 191.646L184.742 191.543L184.547 191.585L76.7054 214.972L76.6813 215.943L340.52 287.033L340.909 286.122L184.912 191.646Z" fill="#BAE5A4" fill-opacity="0.4" stroke="white"/>
</svg>
