<svg width="17" height="17" viewBox="0 0 17 17" fill="none" xmlns="http://www.w3.org/2000/svg">
<path d="M6.03837 14.1521C5.91171 14.1521 5.78504 14.1054 5.68504 14.0054C5.49171 13.8121 5.49171 13.4921 5.68504 13.2987L10.0317 8.95208C10.3517 8.63208 10.3517 8.11208 10.0317 7.79208L5.68504 3.44542C5.49171 3.25208 5.49171 2.93208 5.68504 2.73875C5.87837 2.54542 6.19837 2.54542 6.39171 2.73875L10.7384 7.08542C11.0784 7.42542 11.2717 7.88542 11.2717 8.37208C11.2717 8.85875 11.085 9.31875 10.7384 9.65875L6.39171 14.0054C6.29171 14.0988 6.16504 14.1521 6.03837 14.1521Z" fill="#696969"/>
</svg>
