<svg width="24" height="24" viewBox="0 0 24 24" fill="none" xmlns="http://www.w3.org/2000/svg">
<path d="M21.5999 10.5598V15.3598C21.5999 18.7198 19.6799 20.1598 16.7999 20.1598H7.1999C4.3199 20.1598 2.3999 18.7198 2.3999 15.3598V8.63984C2.3999 5.27984 4.3199 3.83984 7.1999 3.83984H13.9199" stroke="#0D0E0D" stroke-width="1.44" stroke-miterlimit="10" stroke-linecap="round" stroke-linejoin="round"/>
<path d="M7.2002 9.12109L10.205 11.5211C11.1938 12.3083 12.8162 12.3083 13.805 11.5211L14.9378 10.6187" stroke="#0D0E0D" stroke-width="1.44" stroke-miterlimit="10" stroke-linecap="round" stroke-linejoin="round"/>
<path d="M19.1998 8.16133C20.5253 8.16133 21.5998 7.08681 21.5998 5.76133C21.5998 4.43584 20.5253 3.36133 19.1998 3.36133C17.8743 3.36133 16.7998 4.43584 16.7998 5.76133C16.7998 7.08681 17.8743 8.16133 19.1998 8.16133Z" stroke="#0D0E0D" stroke-width="1.44" stroke-miterlimit="10" stroke-linecap="round" stroke-linejoin="round"/>
</svg>
