<svg width="177" height="440" viewBox="0 0 177 440" fill="none" xmlns="http://www.w3.org/2000/svg">
<path d="M217.86 398.527L217.908 398.496L218.184 398.911C218.423 399.272 218.694 399.519 219.018 399.616C219.026 399.619 219.033 399.621 219.042 399.623L219.071 399.63C219.08 399.633 219.091 399.636 219.103 399.639C219.115 399.642 219.128 399.646 219.142 399.65C219.703 399.768 220.285 399.58 220.669 399.163C220.669 399.163 220.669 399.163 220.669 399.163L220.673 399.158L220.68 399.15L220.687 399.142L220.694 399.133L427.812 172.926C428.289 172.398 428.363 171.611 427.987 170.997L217.86 398.527ZM217.86 398.527L57.3428 151.109L57.3716 151.118L56.6054 149.963C56.4069 149.664 56.3085 149.315 56.3444 148.958L56.3449 148.951C56.4062 148.246 56.9268 147.663 57.6157 147.525L57.6185 147.524L372.037 82.4661L217.86 398.527ZM373.735 83.1961L427.986 170.995L372.038 82.4659C372.703 82.3305 373.378 82.619 373.735 83.1959C373.735 83.1959 373.735 83.196 373.735 83.1961ZM279.436 269.945L279.914 270.268L280.166 269.75L323.621 180.485L323.996 179.715L323.141 179.767L162.229 189.591L160.761 189.68L161.979 190.504L279.436 269.945ZM327.97 179.474L327.679 179.492L327.551 179.754L282.786 271.697L282.597 272.087L282.956 272.33L311.833 291.86L312.407 292.249L312.594 291.581L344.066 179.158L344.256 178.481L343.554 178.524L327.97 179.474ZM348.003 178.247L347.648 178.269L347.552 178.611L317.271 286.813L318.12 287.286L421.895 174.605L422.736 173.691L421.496 173.767L348.003 178.247ZM348.76 174.319L348.57 174.996L349.272 174.953L392.258 172.323L392.258 171.325L350.73 168.767L350.327 168.742L350.217 169.13L348.76 174.319ZM344.821 175.225L345.176 175.203L345.272 174.861L346.872 169.141L347.039 168.546L346.422 168.507L333.749 167.722L333.415 167.701L333.269 168.002L329.672 175.404L329.297 176.174L330.152 176.121L344.821 175.225ZM335.275 163.907L334.947 164.579L335.693 164.625L347.53 165.354L347.934 165.379L348.043 164.99L364.535 106.07L363.604 105.716L335.275 163.907ZM331.14 164.339L331.474 164.359L331.621 164.059L368.264 88.7886L368.895 87.4942L367.598 88.1193L225.014 156.856L223.289 157.687L225.2 157.805L331.14 164.339ZM329.625 168.161L329.953 167.489L329.207 167.442L217.486 160.548L217.356 160.54L217.238 160.597L166.294 185.154L166.541 186.103L325.319 176.413L325.61 176.396L325.738 176.133L329.625 168.161ZM155.68 186.526L155.884 186.608L156.083 186.512L209.078 160.965L210.803 160.133L208.891 160.015L70.9026 151.503L70.6858 152.467L155.68 186.526ZM154.703 189.796L154.633 189.566L154.41 189.477L85.7677 161.972L85.3339 162.87L158.252 204.479L159.342 205.101L158.978 203.9L154.703 189.796ZM159.965 193.025L158.797 192.235L159.206 193.584L163.343 207.22L163.401 207.41L163.574 207.509L266.137 266.042L266.665 265.194L159.965 193.025ZM276.913 276.428L277.118 276.007L276.712 275.774L165.842 212.514L164.752 211.892L165.116 213.094L219.458 392.467L219.827 393.688L220.386 392.541L276.913 276.428ZM280.384 277.864L279.92 277.599L279.686 278.079L227.351 385.574L228.17 386.129L310.4 295.697L310.82 295.236L310.278 294.927L280.384 277.864ZM351.376 164.988L351.21 165.584L351.827 165.622L422.664 169.992L423.627 170.051L423.12 169.23L373.52 88.9685L372.921 87.9984L372.614 89.0966L351.376 164.988ZM216.589 157.272L216.719 157.28L216.836 157.223L356.262 90.0173L355.944 89.0773L73.7138 147.473L73.7844 148.462L216.589 157.272ZM160.749 209.765L160.691 209.574L160.518 209.476L64.6753 154.786L64.008 155.492L212.727 384.724L213.625 384.307L160.749 209.765Z" fill="#BAE5A4" fill-opacity="0.4" stroke="white"/>
</svg>
