<svg width="26" height="26" viewBox="0 0 26 26" fill="none" xmlns="http://www.w3.org/2000/svg">
<path d="M22.8365 9.29634V16.7063C22.8365 17.9196 22.1865 19.0463 21.1357 19.6638L14.7007 23.3797C13.6498 23.9863 12.3498 23.9863 11.2882 23.3797L4.85318 19.6638C3.80234 19.0572 3.15234 17.9305 3.15234 16.7063V9.29634C3.15234 8.08301 3.80234 6.95629 4.85318 6.33879L11.2882 2.62297C12.339 2.0163 13.639 2.0163 14.7007 2.62297L21.1357 6.33879C22.1865 6.95629 22.8365 8.07217 22.8365 9.29634Z" stroke="#1D432E" stroke-width="1.5" stroke-linecap="round" stroke-linejoin="round"/>
<path d="M12.9998 11.9155C14.3938 11.9155 15.5239 10.7854 15.5239 9.39131C15.5239 7.99725 14.3938 6.86719 12.9998 6.86719C11.6057 6.86719 10.4756 7.99725 10.4756 9.39131C10.4756 10.7854 11.6057 11.9155 12.9998 11.9155Z" stroke="#1D432E" stroke-width="1.5" stroke-linecap="round" stroke-linejoin="round"/>
<path d="M17.3332 18.0472C17.3332 16.0972 15.394 14.5156 12.9998 14.5156C10.6057 14.5156 8.6665 16.0972 8.6665 18.0472" stroke="#1D432E" stroke-width="1.5" stroke-linecap="round" stroke-linejoin="round"/>
</svg>
