<svg width="74" height="74" viewBox="0 0 74 74" fill="none" xmlns="http://www.w3.org/2000/svg">
<path fill-rule="evenodd" clip-rule="evenodd" d="M52.7168 3.27344C65.1592 9.16724 73.9999 21.9372 73.9999 36.9991C73.9999 57.3 57.3008 73.9991 36.9999 73.9991C30.7787 73.9991 24.8849 72.3619 19.9734 69.7425C21.938 70.0699 24.23 70.3973 26.1946 70.3973C36.9999 70.3973 46.4955 66.1407 53.6991 58.9372C60.5752 52.061 64.8318 42.238 64.8318 31.7602C64.8318 20.9549 60.5752 11.4593 53.6991 4.25574C53.3716 3.9283 53.0442 3.60087 52.7168 3.27344Z" fill="#8048FF"/>
<path fill-rule="evenodd" clip-rule="evenodd" d="M59.5929 43.2208C57.6283 48.4597 55.0089 53.0438 51.0796 56.6456C44.8584 62.8668 36.0177 66.796 26.1947 66.796C20.9558 66.796 15.7168 65.8137 11.1327 63.5217C4.58407 57.3004 0.327434 48.4597 0 38.6367C1.30973 40.6013 2.61947 42.2385 4.25664 43.8757C11.1327 51.0792 20.9558 55.3358 31.7611 55.3358C42.2389 55.3358 52.062 51.0792 58.9381 43.8757C59.2655 43.8757 59.2655 43.5482 59.5929 43.2208Z" fill="#8048FF"/>
<path fill-rule="evenodd" clip-rule="evenodd" d="M37 0C38.3097 0 39.6195 0 40.9292 0C33.0708 1.63717 26.1947 5.23894 20.6283 10.8053C13.7522 17.6814 9.49557 27.5044 9.49557 37.9823C9.49557 40.2743 9.49557 42.2389 10.1504 44.531C8.84071 43.5487 7.85841 42.5664 6.54867 41.5841C3.9292 38.9646 1.9646 35.6903 0 32.4159C2.29204 14.0796 18.0088 0 37 0Z" fill="#8048FF"/>
</svg>
