<svg width="24" height="24" viewBox="0 0 24 24" fill="none" xmlns="http://www.w3.org/2000/svg">
<path d="M12 2C17.5228 2 22 6.47715 22 12C22 17.5228 17.5228 22 12 22C6.47715 22 2 17.5228 2 12C2 6.47715 6.47715 2 12 2Z" fill="#8048FF"/>
<path d="M12 10.25C12.41 10.25 12.75 10.59 12.75 11V16C12.75 16.41 12.41 16.75 12 16.75C11.59 16.75 11.25 16.41 11.25 16V11C11.25 10.59 11.59 10.25 12 10.25Z" fill="white"/>
<path d="M12.92 8.37914C12.87 8.49914 12.8 8.60914 12.71 8.70914C12.61 8.79914 12.5 8.86914 12.38 8.91914C12.14 9.01914 11.86 9.01914 11.62 8.91914C11.5 8.86914 11.39 8.79914 11.29 8.70914C11.2 8.60914 11.13 8.49914 11.08 8.37914C11.03 8.25914 11 8.12914 11 7.99914C11 7.86914 11.03 7.73914 11.08 7.61914C11.13 7.48914 11.2 7.38914 11.29 7.28914C11.39 7.19914 11.5 7.12914 11.62 7.07914C11.74 7.02914 11.87 6.99914 12 6.99914C12.13 6.99914 12.26 7.02914 12.38 7.07914C12.5 7.12914 12.61 7.19914 12.71 7.28914C12.8 7.38914 12.87 7.48914 12.92 7.61914C12.97 7.73914 13 7.86914 13 7.99914C13 8.12914 12.97 8.25914 12.92 8.37914Z" fill="white"/>
</svg>
