<svg
    xmlns="http://www.w3.org/2000/svg"
    viewBox="0 0 17 15"
    id="vector">
    <path
        id="path"
        d="M 7.759 0.049 L 7.759 14.317 L 8.948 14.317 L 8.948 0.049 L 7.759 0.049 Z M 0.625 1.238 L 0.625 2.427 L 5.381 2.427 L 5.381 1.238 L 0.625 1.238 Z M 11.92 1.238 C 11.92 1.238 11.326 1.238 11.326 1.833 L 11.326 5.4 C 11.326 5.4 11.326 5.994 11.92 5.994 L 15.487 5.994 C 15.487 5.994 16.082 5.994 16.082 5.4 L 16.082 1.833 C 16.082 1.833 16.082 1.238 15.487 1.238 L 11.92 1.238 Z M 12.515 2.427 L 14.893 2.427 L 14.893 4.805 L 12.515 4.805 L 12.515 2.427 Z M 0.625 4.805 L 0.625 5.994 L 5.381 5.994 L 5.381 4.805 L 0.625 4.805 Z M 0.625 8.372 L 0.625 9.561 L 5.381 9.561 L 5.381 8.372 L 0.625 8.372 Z M 11.92 8.372 C 11.92 8.372 11.326 8.372 11.326 8.967 L 11.326 12.533 C 11.326 12.533 11.326 13.128 11.92 13.128 L 15.487 13.128 C 15.487 13.128 16.082 13.128 16.082 12.533 L 16.082 8.967 C 16.082 8.967 16.082 8.372 15.487 8.372 L 11.92 8.372 Z M 12.515 9.561 L 14.893 9.561 L 14.893 11.939 L 12.515 11.939 L 12.515 9.561 Z M 0.625 11.939 L 0.625 13.128 L 5.381 13.128 L 5.381 11.939 L 0.625 11.939 Z"
        fill="#F57F17"/>
</svg>
